<svg id="Layer_1" data-name="Layer 1" xmlns="http://www.w3.org/2000/svg" viewBox="0 0 432 288"><defs><style>.cls-1{fill:#fff;}</style></defs><path class="cls-1" d="M113.05,159.37h-2.23V144.48h49.51v14.89H158.2c0-4-3.29-10.05-9.67-10.05h-7.15v39a3.94,3.94,0,0,0,3.57,4.26v2.22H126.2v-2.22a3.94,3.94,0,0,0,3.57-4.26v-39h-7.15C116.24,149.32,113.05,155.41,113.05,159.37Z"/><path class="cls-1" d="M207.32,170.2v24.56c-3.77-1.64-6.09-2.8-11.6-1.06a22.78,22.78,0,0,1-7.06,1.06c-16.15,0-26.11-10.93-26.11-25.14s10-25.14,26.11-25.14c12.28,0,17.89,4.93,18.47,5.51l-3.19,14c-2.81-8-8.13-14.69-15.28-14.69-9,0-14.12,9.08-14.12,20.3s5.13,20.31,14.12,20.31c2.42,0,7.06-1.26,7.06-5.81v-7.44c0-2.71-1.26-4.06-2.61-4.26h-.29V170.2Z"/><path class="cls-1" d="M212.83,194.76v-2.22c1.35,0,2.9-1.26,2.9-4.26V151c0-2.9-1.55-4.25-2.9-4.25v-2.23H234.2a25.14,25.14,0,1,1,0,50.28Zm14.5-25.14v18.66a8.37,8.37,0,0,0,.2,1.65h6.67c8.89,0,13.54-9.09,13.54-20.31s-4.65-20.3-13.54-20.3h-6.67a8.18,8.18,0,0,0-.2,1.64Z"/><path class="cls-1" d="M262,194.76v-2.22c1.35,0,2.9-1.26,2.9-4.26V151c0-2.9-1.55-4.25-2.9-4.25v-2.23h38.58V157h-2.22c0-4-2-7.63-7.06-7.63h-14.6a8.18,8.18,0,0,0-.2,1.64V167.2h6.68a4.08,4.08,0,0,0,4.25-3.48v-.29h2.22v12.48h-2.22v-.39a4.15,4.15,0,0,0-4.25-3.48h-6.68v16.24a8.37,8.37,0,0,0,.2,1.65h12.08c6.39,0,9.58-6,9.58-10.06h2.22v14.89Z"/><path class="cls-1" d="M231,106.71c-3.64.77-7.45.65-11.18,1-.5,0-1.38.41-1.39.67-.12,2.08-.07,4.16-.07,6.5,3.65-.18,7-.17,10.4-.56a32.6,32.6,0,0,0,16.53-6.22c10.08-7.75,13.86-18.47,14.21-30.74,0-1-.49-1.21-1.27-1.37a58.27,58.27,0,0,0-26.72.33c-2.26.59-4.47,1.39-6.8,2.13,0-.67,0-1.28,0-1.88.25-10.67-4.23-18.7-13.51-24a2.28,2.28,0,0,0-1.91,0c-9.4,5.34-13.91,13.45-13.57,24.26,0,.53,0,1.07,0,1.64a3.25,3.25,0,0,1-.63-.06c-10.62-4.36-21.55-4.65-32.68-2.45-1.11.22-1.51.62-1.51,1.8a41.69,41.69,0,0,0,5.37,20.32,30.33,30.33,0,0,0,10.41,11.14c7.43,4.68,15.7,5.79,24.26,5.47a1.42,1.42,0,0,0,.93-1c.11-1.44,0-2.88.07-4.32.07-1.24-.35-1.71-1.66-1.69a64.18,64.18,0,0,1-7.07-.27c-14-1.46-22.6-10.77-24.81-24-.16-1,.2-1.26,1.1-1.35a53,53,0,0,1,15.8.67c11.82,2.4,19.2,9.64,20.74,21,.7,5.16.37,10.45.61,15.68.07,1.42-.37,2-1.79,2.13a43.58,43.58,0,0,0-27.45,13.95c-1,1-1.88,2.11-2.78,3.25l-.19.24-.21.29c-.1.12-.19.24-.28.37h0l-.1.15c-.38.5-.74,1-1.09,1.54H182c.46-.53,1-1,1.44-1.54a37.71,37.71,0,0,1,53.66,0c.49.5,1,1,1.44,1.54h9.16c-.21-.32-.42-.63-.64-.94A44.87,44.87,0,0,0,231,126.2a41.57,41.57,0,0,0-15.38-4.7c-1.28-.13-1.91-.55-1.78-2s0-3.18,0-4.77c0-4.52-.17-9,1-13.49,1.76-6.91,5.46-12.33,11.95-15.63,7.76-4,16-4.38,24.5-3.61.9.08.89.6.78,1.3C250.15,94.74,243.39,104.12,231,106.71ZM211.57,89a1.61,1.61,0,0,1-2.58.07,18.7,18.7,0,0,1,0-27.84,1.63,1.63,0,0,1,2.59.05c3.82,3.41,6.22,8.72,6.19,15.5C217.63,80.68,215.55,85.26,211.57,89Z"/><path class="cls-1" d="M184.1,200.32c2.65,0,5.1,0,7.54,0a2.13,2.13,0,0,1,1.2.81c9.7,11.27,25.11,11.26,34.88,0,.28-.33.68-.78,1-.79,2.49-.07,5,0,7.55,0-2.67,7-12.37,15.68-24.36,16.25C198.59,217.19,188.19,209.18,184.1,200.32Z"/><path class="cls-1" d="M170,201.46l-1.9.76,1.34,3.34-1.34.54-1.34-3.34-2.63,1.06-.67-1.67,7.21-2.9,2.19,5.45-1.34.54Z"/><path class="cls-1" d="M170.12,208a4.26,4.26,0,1,1-1,5.77A4,4,0,0,1,170.12,208Zm3.73,5.55a2.44,2.44,0,1,0-3.42-.63A2.39,2.39,0,0,0,173.85,213.51Z"/><path class="cls-1" d="M176.32,216.72a4.26,4.26,0,1,1,.41,5.84A4,4,0,0,1,176.32,216.72Zm4.92,4.53a2.43,2.43,0,1,0-3.47.18A2.37,2.37,0,0,0,181.24,221.25Z"/><path class="cls-1" d="M186.73,220.64l3.08,1.72c2.22,1.25,3,3.44,1.84,5.49s-3.43,2.54-5.64,1.3l-3.09-1.73Zm-.08,7.17a2.41,2.41,0,1,0,2.36-4.2l-1.44-.81L185.22,227Z"/><path class="cls-1" d="M192.67,231.57l1-1.11a4.54,4.54,0,0,0,2.21,1.54c1,.31,1.53.1,1.68-.35.43-1.39-4.19-1.78-3.33-4.54.4-1.26,1.74-2,3.85-1.34a5.14,5.14,0,0,1,2.37,1.46l-.93,1.14a4.32,4.32,0,0,0-1.88-1.22c-1-.32-1.53-.06-1.67.41-.43,1.36,4.18,1.77,3.33,4.49-.38,1.24-1.74,2-3.86,1.32A5.6,5.6,0,0,1,192.67,231.57Z"/><path class="cls-1" d="M212.49,235.66l-.92-.88a4.15,4.15,0,0,1-2.61.82c-1.71,0-3-.93-2.93-2.18,0-1,.55-1.64,1.74-2.29a2.34,2.34,0,0,1-.77-1.66c0-1.13,1-1.89,2.45-1.87s2.22.73,2.21,1.83c0,.8-.49,1.38-1.56,1.94l1.4,1.34a4.45,4.45,0,0,0,.41-1.2l1.38.45a4.9,4.9,0,0,1-.74,1.76l.9.86Zm-1.93-1.84L208.72,232c-.72.4-1,.75-1,1.23s.52,1,1.37,1A2.48,2.48,0,0,0,210.56,233.82Zm-2-4.34c0,.3.11.52.58,1,.78-.39,1-.68,1-1s-.26-.65-.76-.66A.74.74,0,0,0,208.58,229.48Z"/><path class="cls-1" d="M221.32,227.71l.57,2,3.46-1,.39,1.39-3.45,1,.78,2.72-1.73.49-2.15-7.47,5.65-1.62.4,1.39Z"/><path class="cls-1" d="M233.55,227.75l-3.21,1.66.15,1.79-1.64.85-.47-8.5,1.58-.82,6.64,5.33-1.68.86Zm-1.13-.95L230,224.72l.27,3.21Z"/><path class="cls-1" d="M242.85,223.17l-2.53-.72-.07.06-1.21,1,1.37,1.67L239,226.32l-4.93-6,2.6-2.13c1.6-1.32,3.29-1.31,4.4,0a2.52,2.52,0,0,1,.32,2.91l2.93.83Zm-5.31-3.8-1.13.93,1.72,2.09,1.13-.93c.85-.7,1-1.44.42-2.1S238.39,218.67,237.54,219.37Z"/><path class="cls-1" d="M251.14,213.8,247.41,211l1.69,4.14-.49.65-4.36-.45,3.64,2.76-1,1.34-6.2-4.69.9-1.19,5.61.6-2.12-5.2.89-1.18,6.21,4.68Z"/><path class="cls-1" d="M253.12,209.1l-1-1.12a4.55,4.55,0,0,0,1.79-2c.44-1,.3-1.51-.14-1.71-1.32-.6-2.28,3.93-4.91,2.74-1.2-.54-1.76-2-.85-4a5.15,5.15,0,0,1,1.74-2.18l1,1.07a4.35,4.35,0,0,0-1.44,1.71c-.44,1-.25,1.51.2,1.71,1.3.59,2.27-3.93,4.87-2.76,1.18.54,1.75,2,.83,4A5.48,5.48,0,0,1,253.12,209.1Z"/><path class="cls-1" d="M239,111.76c.9-1.14,1.82-2.22,2.78-3.25C240.77,109.54,239.84,110.63,239,111.76Zm72.36,1.65c.22.31.43.62.64.94h0C311.76,114,311.54,113.72,311.32,113.41Z"/><path class="cls-1" d="M255.71,139.53l-.73-1.05H254v1h-.66V136h1.47c.93,0,1.52.48,1.52,1.27a1.15,1.15,0,0,1-.76,1.13l.82,1.17Zm-.89-3H254v1.42h.78c.58,0,.88-.26.88-.71S255.4,136.52,254.82,136.52Z"/><path class="cls-1" d="M254.76,141.19a3.37,3.37,0,1,1,3.37-3.37A3.37,3.37,0,0,1,254.76,141.19Zm0-6.32a2.95,2.95,0,1,0,2.95,2.95A2.95,2.95,0,0,0,254.76,134.87Z"/></svg>