<svg id="Layer_1" data-name="Layer 1" xmlns="http://www.w3.org/2000/svg" viewBox="0 0 432 288"><defs><style>.cls-1{fill:#8cc63f;}.cls-2{fill:#006838;}</style></defs><path d="M117.65,159.37h-2.23V144.48h49.51v14.89H162.8c0-4-3.29-10.05-9.67-10.05H146v39a3.94,3.94,0,0,0,3.58,4.26v2.22H130.8v-2.22a4,4,0,0,0,3.58-4.26v-39h-7.16C120.84,149.32,117.65,155.41,117.65,159.37Z"/><path d="M211.92,170.2v24.56c-3.77-1.64-6.09-2.8-11.6-1.06a22.78,22.78,0,0,1-7.06,1.06c-16.15,0-26.11-10.93-26.11-25.14s10-25.14,26.11-25.14c12.28,0,17.89,4.93,18.47,5.51l-3.19,14c-2.81-8-8.12-14.69-15.28-14.69-9,0-14.12,9.08-14.12,20.3s5.13,20.31,14.12,20.31c2.42,0,7.06-1.26,7.06-5.81v-7.44c0-2.71-1.26-4.06-2.61-4.26h-.29V170.2Z"/><path d="M217.43,194.76v-2.22c1.36,0,2.9-1.26,2.9-4.26V151c0-2.9-1.54-4.25-2.9-4.25v-2.23H238.8a25.14,25.14,0,1,1,0,50.28Zm14.51-25.14v18.66a8.4,8.4,0,0,0,.19,1.65h6.67c8.9,0,13.54-9.09,13.54-20.31s-4.64-20.3-13.54-20.3h-6.67a8.2,8.2,0,0,0-.19,1.64Z"/><path d="M266.55,194.76v-2.22c1.36,0,2.9-1.26,2.9-4.26V151c0-2.9-1.54-4.25-2.9-4.25v-2.23h38.58V157h-2.22c0-4-2-7.63-7.06-7.63h-14.6a8.2,8.2,0,0,0-.19,1.64V167.2h6.67a4.08,4.08,0,0,0,4.25-3.48v-.29h2.23v12.48H292v-.39a4.15,4.15,0,0,0-4.25-3.48h-6.67v16.24a8.4,8.4,0,0,0,.19,1.65h12.09c6.38,0,9.57-6,9.57-10.06h2.22v14.89Z"/><path class="cls-1" d="M235.64,106.71c-3.63.77-7.45.65-11.17,1-.51,0-1.39.41-1.4.67-.12,2.08-.07,4.16-.07,6.5,3.66-.18,7.05-.17,10.4-.56a32.6,32.6,0,0,0,16.54-6.22c10.08-7.75,13.85-18.47,14.2-30.74,0-1-.49-1.21-1.27-1.37a58.22,58.22,0,0,0-26.71.33c-2.27.59-4.48,1.39-6.81,2.13,0-.67,0-1.28,0-1.88.25-10.67-4.23-18.7-13.51-24a2.25,2.25,0,0,0-1.9,0C204.54,57.88,200,66,200.37,76.8c0,.53,0,1.07,0,1.64a3.12,3.12,0,0,1-.62-.06c-10.63-4.36-21.56-4.65-32.69-2.45-1.11.22-1.51.62-1.5,1.8a41.69,41.69,0,0,0,5.37,20.32,30.3,30.3,0,0,0,10.4,11.14c7.44,4.68,15.7,5.79,24.26,5.47.34,0,.9-.63.93-1,.11-1.44,0-2.88.07-4.32.07-1.24-.35-1.71-1.65-1.69a64.27,64.27,0,0,1-7.08-.27c-14-1.46-22.6-10.77-24.8-24-.17-1,.19-1.26,1.1-1.35a53,53,0,0,1,15.8.67c11.82,2.4,19.19,9.64,20.73,21,.7,5.16.37,10.45.61,15.68.07,1.42-.36,2-1.79,2.13a43.58,43.58,0,0,0-27.45,13.95q-1.42,1.55-2.78,3.25l-.18.24-.22.29c-.1.12-.19.24-.28.37h0l-.11.15c-.37.5-.74,1-1.09,1.54h9.18c.46-.53.95-1,1.45-1.54a37.7,37.7,0,0,1,53.65,0c.5.5,1,1,1.45,1.54h9.15c-.21-.32-.42-.63-.64-.94a44.87,44.87,0,0,0-16.07-14.15,41.52,41.52,0,0,0-15.37-4.7c-1.29-.13-1.91-.55-1.79-2s0-3.18,0-4.77c0-4.52-.16-9,1-13.49,1.76-6.91,5.45-12.33,11.94-15.63,7.76-4,16-4.38,24.5-3.61.9.08.89.6.78,1.3C254.75,94.74,248,104.12,235.64,106.71ZM216.17,89a1.61,1.61,0,0,1-2.58.07,18.7,18.7,0,0,1,0-27.84,1.63,1.63,0,0,1,2.59.05c3.82,3.41,6.22,8.72,6.19,15.5C222.23,80.68,220.16,85.26,216.17,89Z"/><path class="cls-2" d="M188.7,200.32c2.65,0,5.1,0,7.55,0a2.1,2.1,0,0,1,1.19.81c9.71,11.27,25.12,11.26,34.88,0,.28-.33.68-.78,1-.79,2.49-.07,5,0,7.55,0-2.67,7-12.37,15.68-24.36,16.25C203.2,217.19,192.8,209.18,188.7,200.32Z"/><path d="M174.62,201.46l-1.9.76,1.34,3.34-1.34.54-1.34-3.34-2.63,1.06-.67-1.67,7.21-2.9,2.2,5.45-1.34.54Z"/><path d="M174.72,208a4.26,4.26,0,1,1-1,5.77A4,4,0,0,1,174.72,208Zm3.73,5.55a2.43,2.43,0,1,0-3.42-.63A2.38,2.38,0,0,0,178.45,213.51Z"/><path d="M180.93,216.72a4.26,4.26,0,1,1,.4,5.84A4,4,0,0,1,180.93,216.72Zm4.92,4.53a2.44,2.44,0,1,0-3.48.18A2.38,2.38,0,0,0,185.85,221.25Z"/><path d="M191.33,220.64l3.08,1.72c2.22,1.25,3,3.44,1.84,5.49s-3.42,2.54-5.64,1.3l-3.08-1.73Zm-.08,7.17a2.41,2.41,0,1,0,2.36-4.2l-1.43-.81L189.82,227Z"/><path d="M197.27,231.57l1-1.11a4.59,4.59,0,0,0,2.21,1.54c1,.31,1.54.1,1.68-.35.43-1.39-4.18-1.78-3.32-4.54.39-1.26,1.73-2,3.84-1.34a5.23,5.23,0,0,1,2.38,1.46l-.94,1.14a4.32,4.32,0,0,0-1.88-1.22c-1-.32-1.53-.06-1.67.41-.43,1.36,4.18,1.77,3.34,4.49-.39,1.24-1.75,2-3.87,1.32A5.6,5.6,0,0,1,197.27,231.57Z"/><path d="M217.09,235.66l-.92-.88a4.15,4.15,0,0,1-2.61.82c-1.71,0-2.95-.93-2.93-2.18,0-1,.55-1.64,1.75-2.29a2.31,2.31,0,0,1-.78-1.66c0-1.13,1-1.89,2.46-1.87s2.22.73,2.2,1.83c0,.8-.49,1.38-1.55,1.94l1.4,1.34a4.83,4.83,0,0,0,.4-1.2l1.39.45a5.28,5.28,0,0,1-.74,1.76l.89.86Zm-1.92-1.84L213.32,232c-.72.4-1,.75-1,1.23s.52,1,1.37,1A2.51,2.51,0,0,0,215.17,233.82Zm-2-4.34c0,.3.11.52.58,1,.78-.39,1-.68,1-1s-.25-.65-.75-.66S213.19,229.07,213.18,229.48Z"/><path d="M225.92,227.71l.57,2,3.46-1,.4,1.39-3.46,1,.78,2.72-1.73.49-2.15-7.47,5.65-1.62.4,1.39Z"/><path d="M238.15,227.75l-3.21,1.66.15,1.79-1.64.85-.47-8.5,1.58-.82,6.65,5.33-1.68.86ZM237,226.8l-2.45-2.08.26,3.21Z"/><path d="M247.45,223.17l-2.53-.72-.07.06-1.21,1,1.37,1.67-1.39,1.15-4.93-6,2.6-2.13c1.61-1.32,3.29-1.31,4.4,0a2.52,2.52,0,0,1,.32,2.91L249,222Zm-5.31-3.8-1.13.93,1.72,2.09,1.13-.93c.85-.7,1-1.44.42-2.1S243,218.67,242.14,219.37Z"/><path d="M255.74,213.8,252,211l1.68,4.14-.49.65-4.36-.45,3.64,2.76-1,1.34-6.2-4.69.9-1.19,5.61.6-2.12-5.2.89-1.18,6.21,4.68Z"/><path d="M257.72,209.1l-1-1.12a4.57,4.57,0,0,0,1.8-2c.44-1,.29-1.51-.15-1.71-1.32-.6-2.27,3.93-4.9,2.74-1.21-.54-1.77-2-.86-4a5.23,5.23,0,0,1,1.74-2.18l1,1.07a4.35,4.35,0,0,0-1.44,1.71c-.44,1-.24,1.51.2,1.71,1.31.59,2.27-3.93,4.87-2.76,1.18.54,1.75,2,.84,4A5.56,5.56,0,0,1,257.72,209.1Z"/><path d="M243.56,111.76q1.35-1.71,2.78-3.25C245.37,109.54,244.44,110.63,243.56,111.76Zm72.36,1.65c.22.31.43.62.64.94h0C316.36,114,316.15,113.72,315.92,113.41Z"/><path d="M260.32,139.53l-.73-1.05h-.95v1H258V136h1.47c.94,0,1.52.48,1.52,1.27a1.15,1.15,0,0,1-.76,1.13l.82,1.17Zm-.9-3h-.78v1.42h.78c.58,0,.88-.26.88-.71S260,136.52,259.42,136.52Z"/><path d="M259.37,141.19a3.37,3.37,0,1,1,3.37-3.37A3.38,3.38,0,0,1,259.37,141.19Zm0-6.32a2.95,2.95,0,1,0,2.94,2.95A2.95,2.95,0,0,0,259.37,134.87Z"/></svg>